<svg width="71" height="24" viewBox="0 0 71 24" fill="none" xmlns="http://www.w3.org/2000/svg">
<path d="M0 3.14C0 2.07646 0 1.54469 0.19709 1.13425C0.393884 0.724432 0.724432 0.393884 1.13425 0.19709C1.54469 0 2.07646 0 3.14 0H67.86C68.9235 0 69.4553 0 69.8657 0.19709C70.2756 0.393884 70.6061 0.724432 70.8029 1.13425C71 1.54469 71 2.07646 71 3.14V16.86C71 17.9235 71 18.4553 70.8029 18.8657C70.6061 19.2756 70.2756 19.6061 69.8657 19.8029C69.4553 20 68.9235 20 67.86 20H0V3.14Z" fill="#FFDF00"/>
<path d="M20.088 5.66L16.956 14H15.372L12.228 5.66H13.692L16.164 12.596L18.648 5.66H20.088ZM27.292 10.532C27.292 10.78 27.276 11.004 27.244 11.204H22.192C22.232 11.732 22.428 12.156 22.78 12.476C23.132 12.796 23.564 12.956 24.076 12.956C24.812 12.956 25.332 12.648 25.636 12.032H27.112C26.912 12.64 26.548 13.14 26.02 13.532C25.5 13.916 24.852 14.108 24.076 14.108C23.444 14.108 22.876 13.968 22.372 13.688C21.876 13.4 21.484 13 21.196 12.488C20.916 11.968 20.776 11.368 20.776 10.688C20.776 10.008 20.912 9.412 21.184 8.9C21.464 8.38 21.852 7.98 22.348 7.7C22.852 7.42 23.428 7.28 24.076 7.28C24.7 7.28 25.256 7.416 25.744 7.688C26.232 7.96 26.612 8.344 26.884 8.84C27.156 9.328 27.292 9.892 27.292 10.532ZM25.864 10.1C25.856 9.596 25.676 9.192 25.324 8.888C24.972 8.584 24.536 8.432 24.016 8.432C23.544 8.432 23.14 8.584 22.804 8.888C22.468 9.184 22.268 9.588 22.204 10.1H25.864ZM30.0063 8.348C30.2063 8.012 30.4703 7.752 30.7983 7.568C31.1343 7.376 31.5303 7.28 31.9863 7.28V8.696H31.6383C31.1023 8.696 30.6943 8.832 30.4143 9.104C30.1423 9.376 30.0063 9.848 30.0063 10.52V14H28.6383V7.388H30.0063V8.348ZM33.9398 6.512C33.6918 6.512 33.4838 6.428 33.3158 6.26C33.1478 6.092 33.0638 5.884 33.0638 5.636C33.0638 5.388 33.1478 5.18 33.3158 5.012C33.4838 4.844 33.6918 4.76 33.9398 4.76C34.1798 4.76 34.3838 4.844 34.5518 5.012C34.7198 5.18 34.8038 5.388 34.8038 5.636C34.8038 5.884 34.7198 6.092 34.5518 6.26C34.3838 6.428 34.1798 6.512 33.9398 6.512ZM34.6118 7.388V14H33.2438V7.388H34.6118ZM39.1798 8.504H37.9558V14H36.5758V8.504H35.7958V7.388H36.5758V6.92C36.5758 6.16 36.7758 5.608 37.1758 5.264C37.5838 4.912 38.2198 4.736 39.0838 4.736V5.876C38.6678 5.876 38.3758 5.956 38.2078 6.116C38.0398 6.268 37.9558 6.536 37.9558 6.92V7.388H39.1798V8.504ZM41.0882 6.512C40.8402 6.512 40.6322 6.428 40.4642 6.26C40.2962 6.092 40.2122 5.884 40.2122 5.636C40.2122 5.388 40.2962 5.18 40.4642 5.012C40.6322 4.844 40.8402 4.76 41.0882 4.76C41.3282 4.76 41.5322 4.844 41.7002 5.012C41.8682 5.18 41.9522 5.388 41.9522 5.636C41.9522 5.884 41.8682 6.092 41.7002 6.26C41.5322 6.428 41.3282 6.512 41.0882 6.512ZM41.7602 7.388V14H40.3922V7.388H41.7602ZM49.6163 10.532C49.6163 10.78 49.6003 11.004 49.5683 11.204H44.5163C44.5563 11.732 44.7523 12.156 45.1043 12.476C45.4563 12.796 45.8883 12.956 46.4003 12.956C47.1363 12.956 47.6563 12.648 47.9603 12.032H49.4362C49.2363 12.64 48.8723 13.14 48.3443 13.532C47.8243 13.916 47.1763 14.108 46.4003 14.108C45.7683 14.108 45.2003 13.968 44.6963 13.688C44.2003 13.4 43.8083 13 43.5203 12.488C43.2403 11.968 43.1003 11.368 43.1003 10.688C43.1003 10.008 43.2363 9.412 43.5083 8.9C43.7883 8.38 44.1763 7.98 44.6723 7.7C45.1763 7.42 45.7523 7.28 46.4003 7.28C47.0243 7.28 47.5803 7.416 48.0683 7.688C48.5563 7.96 48.9363 8.344 49.2083 8.84C49.4803 9.328 49.6163 9.892 49.6163 10.532ZM48.1883 10.1C48.1803 9.596 48.0003 9.192 47.6483 8.888C47.2963 8.584 46.8603 8.432 46.3403 8.432C45.8683 8.432 45.4643 8.584 45.1283 8.888C44.7923 9.184 44.5923 9.588 44.5283 10.1H48.1883ZM50.5065 10.664C50.5065 10 50.6425 9.412 50.9145 8.9C51.1945 8.388 51.5705 7.992 52.0425 7.712C52.5225 7.424 53.0545 7.28 53.6385 7.28C54.0705 7.28 54.4945 7.376 54.9105 7.568C55.3345 7.752 55.6705 8 55.9185 8.312V5.12H57.2985V14H55.9185V13.004C55.6945 13.324 55.3825 13.588 54.9825 13.796C54.5905 14.004 54.1385 14.108 53.6265 14.108C53.0505 14.108 52.5225 13.964 52.0425 13.676C51.5705 13.38 51.1945 12.972 50.9145 12.452C50.6425 11.924 50.5065 11.328 50.5065 10.664ZM55.9185 10.688C55.9185 10.232 55.8225 9.836 55.6305 9.5C55.4465 9.164 55.2025 8.908 54.8985 8.732C54.5945 8.556 54.2665 8.468 53.9145 8.468C53.5625 8.468 53.2345 8.556 52.9305 8.732C52.6265 8.9 52.3785 9.152 52.1865 9.488C52.0025 9.816 51.9105 10.208 51.9105 10.664C51.9105 11.12 52.0025 11.52 52.1865 11.864C52.3785 12.208 52.6265 12.472 52.9305 12.656C53.2425 12.832 53.5705 12.92 53.9145 12.92C54.2665 12.92 54.5945 12.832 54.8985 12.656C55.2025 12.48 55.4465 12.224 55.6305 11.888C55.8225 11.544 55.9185 11.144 55.9185 10.688Z" fill="#182230"/>
<path d="M5 24L0 20H5V24Z" fill="#998600"/>
</svg>
