<svg width="50" height="24" viewBox="0 0 50 24" fill="none" xmlns="http://www.w3.org/2000/svg">
<path d="M0 3.14C0 2.07646 0 1.54469 0.19709 1.13425C0.393884 0.724432 0.724432 0.393884 1.13425 0.19709C1.54469 0 2.07646 0 3.14 0H46.86C47.9235 0 48.4553 0 48.8657 0.19709C49.2756 0.393884 49.6061 0.724432 49.8029 1.13425C50 1.54469 50 2.07646 50 3.14V16.86C50 17.9235 50 18.4553 49.8029 18.8657C49.6061 19.2756 49.2756 19.6061 48.8657 19.8029C48.4553 20 47.9235 20 46.86 20H0V3.14Z" fill="#FFDF00"/>
<path d="M19.752 14H18.384L14.268 7.772V14H12.9V5.648H14.268L18.384 11.864V5.648H19.752V14ZM27.6084 10.532C27.6084 10.78 27.5924 11.004 27.5604 11.204H22.5084C22.5484 11.732 22.7444 12.156 23.0964 12.476C23.4484 12.796 23.8804 12.956 24.3924 12.956C25.1284 12.956 25.6484 12.648 25.9524 12.032H27.4284C27.2284 12.64 26.8644 13.14 26.3364 13.532C25.8164 13.916 25.1684 14.108 24.3924 14.108C23.7604 14.108 23.1924 13.968 22.6884 13.688C22.1924 13.4 21.8004 13 21.5124 12.488C21.2324 11.968 21.0924 11.368 21.0924 10.688C21.0924 10.008 21.2284 9.412 21.5004 8.9C21.7804 8.38 22.1684 7.98 22.6644 7.7C23.1684 7.42 23.7444 7.28 24.3924 7.28C25.0164 7.28 25.5724 7.416 26.0604 7.688C26.5484 7.96 26.9284 8.344 27.2004 8.84C27.4724 9.328 27.6084 9.892 27.6084 10.532ZM26.1804 10.1C26.1724 9.596 25.9924 9.192 25.6404 8.888C25.2884 8.584 24.8524 8.432 24.3324 8.432C23.8604 8.432 23.4564 8.584 23.1204 8.888C22.7844 9.184 22.5844 9.588 22.5204 10.1H26.1804ZM37.8347 7.388L35.7827 14H34.3427L33.0107 9.116L31.6787 14H30.2387L28.1747 7.388H29.5667L30.9467 12.704L32.3507 7.388H33.7787L35.1227 12.68L36.4907 7.388H37.8347Z" fill="#182230"/>
<path d="M5 24L0 20H5V24Z" fill="#998600"/>
</svg>
