<svg width="34" height="34" viewBox="0 0 34 34" fill="none" xmlns="http://www.w3.org/2000/svg">
<path d="M2.8335 31.1667V5.66671C2.8335 4.88754 3.11093 4.22053 3.66579 3.66567C4.22065 3.1108 4.88766 2.83337 5.66683 2.83337H28.3335C29.1127 2.83337 29.7797 3.1108 30.3345 3.66567C30.8894 4.22053 31.1668 4.88754 31.1668 5.66671V22.6667C31.1668 23.4459 30.8894 24.1129 30.3345 24.6677C29.7797 25.2226 29.1127 25.5 28.3335 25.5H8.50016L2.8335 31.1667ZM11.3335 15.5834C11.7349 15.5834 12.0713 15.4476 12.3429 15.1761C12.6144 14.9046 12.7502 14.5681 12.7502 14.1667C12.7502 13.7653 12.6144 13.4289 12.3429 13.1573C12.0713 12.8858 11.7349 12.75 11.3335 12.75C10.9321 12.75 10.5956 12.8858 10.3241 13.1573C10.0526 13.4289 9.91683 13.7653 9.91683 14.1667C9.91683 14.5681 10.0526 14.9046 10.3241 15.1761C10.5956 15.4476 10.9321 15.5834 11.3335 15.5834ZM17.0002 15.5834C17.4016 15.5834 17.738 15.4476 18.0095 15.1761C18.2811 14.9046 18.4168 14.5681 18.4168 14.1667C18.4168 13.7653 18.2811 13.4289 18.0095 13.1573C17.738 12.8858 17.4016 12.75 17.0002 12.75C16.5988 12.75 16.2623 12.8858 15.9908 13.1573C15.7193 13.4289 15.5835 13.7653 15.5835 14.1667C15.5835 14.5681 15.7193 14.9046 15.9908 15.1761C16.2623 15.4476 16.5988 15.5834 17.0002 15.5834ZM22.6668 15.5834C23.0682 15.5834 23.4047 15.4476 23.6762 15.1761C23.9477 14.9046 24.0835 14.5681 24.0835 14.1667C24.0835 13.7653 23.9477 13.4289 23.6762 13.1573C23.4047 12.8858 23.0682 12.75 22.6668 12.75C22.2654 12.75 21.929 12.8858 21.6575 13.1573C21.3859 13.4289 21.2502 13.7653 21.2502 14.1667C21.2502 14.5681 21.3859 14.9046 21.6575 15.1761C21.929 15.4476 22.2654 15.5834 22.6668 15.5834Z" fill="#0D0D0C"/>
</svg>
