<svg width="20" height="20" viewBox="0 0 20 20" fill="none" xmlns="http://www.w3.org/2000/svg">
<g clip-path="url(#clip0_13505_8798)">
<path d="M18.5909 10.6583C18.9205 10.2813 18.9205 9.71865 18.5909 9.34169L17.4156 7.9979C17.2353 7.79172 17.1475 7.52059 17.1726 7.24784L17.3362 5.47277C17.3822 4.97327 17.051 4.51697 16.5619 4.40586L14.8286 4.01214C14.5603 3.9512 14.329 3.78242 14.189 3.54553L13.2806 2.0074C13.0248 1.57432 12.4871 1.39862 12.025 1.59708L10.3945 2.29723C10.1426 2.40541 9.85727 2.40541 9.60535 2.29723L7.97374 1.5966C7.51205 1.39835 6.97494 1.57346 6.71883 2.00574L5.81168 3.53685C5.67122 3.77393 5.43915 3.94254 5.17028 4.00287L3.44052 4.39098C2.95019 4.501 2.61766 4.95782 2.66365 5.45823L2.82744 7.24069C2.85244 7.51275 2.76504 7.7832 2.58555 7.98917L1.40679 9.34185C1.07822 9.71889 1.07872 10.2807 1.40795 10.6571L2.58428 12.0022C2.76455 12.2083 2.8524 12.4793 2.82735 12.752L2.66343 14.5358C2.61754 15.0352 2.94867 15.4913 3.43773 15.6024L5.17205 15.9964C5.43987 16.0572 5.67089 16.2255 5.81088 16.4618L6.71771 17.9924C6.9743 18.4255 7.51283 18.6003 7.97489 18.4005L9.60442 17.696C9.85687 17.5868 10.1431 17.5865 10.3958 17.695L12.0261 18.3951C12.4878 18.5933 13.0249 18.4182 13.281 17.9859L14.189 16.4535C14.3289 16.2172 14.56 16.0489 14.8278 15.988L16.5619 15.5941C17.051 15.483 17.3822 15.0267 17.3362 14.5272L17.1726 12.7522C17.1475 12.4794 17.2353 12.2083 17.4156 12.0021L18.5909 10.6583ZM7.81658 13.3417L5.83325 11.3417C5.50825 11.0167 5.50825 10.4917 5.83325 10.1667L5.89158 10.1083C6.21658 9.78333 6.74992 9.78333 7.07492 10.1083L7.7088 10.7462C8.09923 11.139 8.73462 11.1397 9.12588 10.7477L12.7083 7.15833C13.0333 6.83333 13.5666 6.83333 13.8916 7.15833L13.9499 7.21667C14.2749 7.54167 14.2749 8.06667 13.9499 8.39167L9.01658 13.3417C8.67492 13.6667 8.14992 13.6667 7.81658 13.3417Z" fill="#EAAA08"/>
</g>
<defs>
<clipPath id="clip0_13505_8798">
<rect width="20" height="20" fill="white"/>
</clipPath>
</defs>
</svg>
